<svg id="圖層_1" data-name="圖層 1" xmlns="http://www.w3.org/2000/svg" viewBox="0 0 287.95 87.28"><title>header_logo</title><path d="M155.25,62.18a.83.83,0,0,1-.94,1H142.73c-.63,0-.94-.35-.94-1.07q0-3.09.24-9.27c.16-4.13.25-7.22.25-9.28,0-.59-.1-.91-.3-.95q-.36.18-4.38,9.46l-4.71,10.87a1.33,1.33,0,0,1-.81.82c-.11,0-.55,0-1.31,0-1.14,0-1.81-.2-2-.61q-1.77-3.36-4.64-9.79-3.07-6.8-4.61-9.83a1,1,0,0,0-.3-.34,1.42,1.42,0,0,0-.22.89q0,3,.16,9t.16,9c0,.72-.3,1.07-.91,1.07H107.46c-.44,0-.7-.06-.8-.2a1.17,1.17,0,0,1-.15-.69q0-3.33.34-10t.35-10q0-3.54-.33-13.31,0-2.55-.29-7.56l0-.52c0-.41.44-.62,1.38-.62,1.19,0,3,0,5.39-.1s4.2-.11,5.39-.11q.36,0,1,1.29l9.54,19.62c.68,1.32,1.25,2,1.7,2,.24,0,.76-.77,1.54-2.3q3.3-6.42,9.78-19.38c.37-.79.77-1.19,1.21-1.19.63,0,1.58,0,2.86.09s2.24.09,2.89.09,1.38-.05,2.5-.15,2-.15,2.5-.15,1,.24,1,.73q0,3.62-.28,10.79t-.27,10.79c0,2.23.09,5.56.29,10S155.25,60,155.25,62.18Z" fill="#fff"/><path d="M193.21,41.31a36.76,36.76,0,0,1-.39,7.22q-.49,1.53-7.16,11.08-1,1.5-5.4,7-4.8,6-5.46,6.34c-.52.3-3.86.46-10,.46a4,4,0,0,1-1.9-.31q-.42-1.26-1.08-3c-.35-.71-.69-1.44-1-2.17A6.86,6.86,0,0,1,160,65.8c0-.39.19-.59.56-.59q9.09,0,9.09-3.88,0-.34-4.45-6.1-4.6-5.9-5.06-7.46a38,38,0,0,1-.27-6.34c0-.74,0-1.84.07-3.32s.06-2.59.06-3.32c0-.53.36-.8,1.08-.8,1.12,0,2.8,0,5.05.09s3.94.09,5.06.09c.45,0,.68.32.68.95s0,1.44-.1,2.59-.09,2-.09,2.59c0,2.57,0,4.31.13,5.23a11.89,11.89,0,0,0,2,4c1.31,2,2.25,3,2.84,3s1.35-1,2.55-3a14,14,0,0,0,1.8-3.83,48.07,48.07,0,0,0,.33-5.84c0-.55-.06-1.39-.17-2.51s-.16-2-.16-2.54c0-.39.23-.59.69-.59q1.67,0,5-.12c2.21-.08,3.88-.12,5-.12a1.12,1.12,0,0,1,1.14.8A27.21,27.21,0,0,1,193.21,41.31Z" fill="#fff"/><path d="M240.39,62.15c0,.55-.27.83-.92.83a27.06,27.06,0,0,1-3.58-.67c-2-.45-3.19-.76-3.65-.92a38,38,0,0,1-13.1,2.51q-10.11,0-16.58-6.31a21,21,0,0,1-6.41-15.7,22.17,22.17,0,0,1,6.21-16.1q6.42-6.62,16.64-6.62A24.7,24.7,0,0,1,228.35,21a17.61,17.61,0,0,1,7.46,5.51,2.27,2.27,0,0,1,.55,1c0,.65-1,2.12-2.92,4.39s-3.21,3.42-3.78,3.42a6.32,6.32,0,0,1-1.5-1.26,14.13,14.13,0,0,0-3.27-2.33,12.11,12.11,0,0,0-5.49-1.25,9.6,9.6,0,0,0-7.78,3.43,11.7,11.7,0,0,0-2.68,7.87,11,11,0,0,0,2.77,7.89c1.92,2,4.64,3,8.14,3a21.31,21.31,0,0,0,7.46-1.56c-.07-.67-.26-2.39-.59-5.14a41.51,41.51,0,0,1-.43-5.14c0-.39.15-.63.43-.71a1.63,1.63,0,0,1,.52-.06c.63,0,1.59.06,2.86.17s2.24.17,2.9.17,1.74,0,3.14-.14,2.44-.14,3.13-.14.82.34.82,1q0,1.47-.18,4.44T239.73,50q0,3.95.62,11.82Z" fill="#fff"/><path d="M276.18,48.07a15,15,0,0,1-4.56,11.33q-4.56,4.35-12,4.34a16.74,16.74,0,0,1-11.83-4.28,14.31,14.31,0,0,1-4.65-11,15.57,15.57,0,0,1,4.45-11.53q4.44-4.42,12-4.42c4.93,0,8.91,1.44,12,4.33A14.79,14.79,0,0,1,276.18,48.07Zm-10.72,0a6.34,6.34,0,0,0-1.6-4.27A5.24,5.24,0,0,0,259.71,42a5.38,5.38,0,0,0-4.25,1.9,6.14,6.14,0,0,0-1.57,4.22,6.22,6.22,0,0,0,1.57,4.26,5.68,5.68,0,0,0,8.46,0A6.29,6.29,0,0,0,265.46,48.07Z" fill="#fff"/><path d="M18.91,55.8l5.18,6.76V48.44a39.86,39.86,0,0,1-5.18-3.13ZM83.2,45.32A40.12,40.12,0,0,1,78,48.44V62.56l5.19-6.76S83.21,51.35,83.2,45.32ZM78,39.78a39.64,39.64,0,0,0,5.16-2.48c0-10,0-20.87,0-23.56,0-5.27-2.14-6.6-2.8-7.83-1,1.33-5.5,5.08-7.1,6.35S51.06,30.74,51.06,30.74,32,15,30,13.07,22.56,6.63,21.51,5c-.71,1.53-2.58,3.79-2.58,8.61,0,2.46,0,13.55,0,23.75a41.24,41.24,0,0,0,5.17,2.51V17.37s2.61-.81,8.13,4.06S51.09,37.35,51.09,37.35,66,24.74,69.23,22,78,18.81,78,18.81Z" fill="#fff"/><path d="M63.29,46.92C58.19,50.05,54,54,53.6,62.43A51.18,51.18,0,0,1,71.77,50.07c4.33-1.78,18-8,17.93-18.61C84.68,40.36,70.44,42.55,63.29,46.92Z" fill="#fff"/><path d="M38.4,46.61C31,42.7,17.16,40.86,11.75,32.17c.38,10.61,14.34,16.29,18.73,17.9C40.41,53.73,49.8,56.75,49.8,71c0,1.62,0,8.22,0,10h2.55V71C52.33,66.39,53,54.29,38.4,46.61Z" fill="#fff"/><path d="M66,79.26a5.91,5.91,0,0,1-1.51-.32,4.28,4.28,0,0,1-1.69-1.08,5.77,5.77,0,0,1-1.29-2.07,7.28,7.28,0,0,1-.35-1.34c-1.08-1.6-3.86-1.42-4.38-2.52a8.72,8.72,0,0,0-.07,1.14,9,9,0,0,0,.72,3.67,8,8,0,0,0,2,2.83,8.72,8.72,0,0,0,3,1.79,9,9,0,0,0,1.64.42C65.17,81.42,65.07,80.08,66,79.26Z" fill="#fff"/><path d="M66.25,66.54h0a5.72,5.72,0,0,1,1.94.35A4.28,4.28,0,0,1,69.88,68a5.58,5.58,0,0,1,1.28,2.08,4.92,4.92,0,0,1,.26.82l.06.1c1.08,1.69,4,1.46,4.44,2.63,0-.28,0-.57,0-.85a9.22,9.22,0,0,0-.71-3.66,8.32,8.32,0,0,0-2-2.83,8.93,8.93,0,0,0-3-1.8,12.07,12.07,0,0,0-2-.48C67.09,64.28,67.24,65.69,66.25,66.54Z" fill="#fff"/><path d="M72.36,73.67l0-.07c0,.25,0,.52,0,.8a7.32,7.32,0,0,1-.4,2.56,4.65,4.65,0,0,1-1.06,1.65,3.79,3.79,0,0,1-1.48.91,7.16,7.16,0,0,1-.7.17c-1.06.79-.94,2.31-2,2.55.25,0,.52,0,.8,0a9.91,9.91,0,0,0,3.55-.63,8.27,8.27,0,0,0,2.77-1.77,8,8,0,0,0,1.79-2.68,7.33,7.33,0,0,0,.47-1.59C75.55,74.69,73.15,74.73,72.36,73.67Z" fill="#fff"/><path d="M61,72.93a.33.33,0,0,1,0,.06c0-.18,0-.33,0-.51a8.16,8.16,0,0,1,.44-2.81,5,5,0,0,1,1.16-1.81,4,4,0,0,1,1.61-1c1.57-.78,1.27-2.78,2.6-3l-.49,0a10.54,10.54,0,0,0-3.91.7,8.81,8.81,0,0,0-3,1.94,8.55,8.55,0,0,0-2,2.94A10,10,0,0,0,57,70.88C57.68,71.8,60.18,71.8,61,72.93Z" fill="#fff"/><path d="M33.6,66.89l.19-.09Z" fill="#fff"/><path d="M30.42,72.93a.67.67,0,0,1,.09.14,1.92,1.92,0,0,1,0-.24c.09-3.24,1.39-5,3-5.86l-.07,0a.93.93,0,0,0,.2-.1l.19-.09c1.22-.71,1.21-2.22,2-2.76h-.45a8.67,8.67,0,0,0-8.85,7C27.29,71.82,29.63,71.85,30.42,72.93Z" fill="#fff"/><path d="M36.55,72.38c0,.49-.07.75-.07,1.24,1.51,1.41,2.86.46,2.86,2.28s0,2.59,0,3.46A18.26,18.26,0,0,1,37,79.22c-.79.62-1,1.63-1.41,2.24h.21c3.46,0,7.45.31,7.45.31v-9.2C42.22,71.19,38.66,73.07,36.55,72.38Z" fill="#fff"/><path d="M35.84,79c-2.53-.58-4.6-1.92-5.18-4.44a.09.09,0,0,0,0,0c-1-1.59-3.63-1.47-4.32-2.42a9.67,9.67,0,0,0-.08,1.2c0,6,5.08,7.64,7.94,8.06.43-.59.55-1.48,1.28-2.1A2,2,0,0,1,35.84,79Z" fill="#fff"/><path d="M35.88,66.31h.25a7.63,7.63,0,0,1,5.81,2.52c1.25-1.17.52-2.91.88-5.3-1,.49-2.54.52-5.31.52C36.61,64.38,36.59,65.49,35.88,66.31Z" fill="#fff"/></svg>